# xmcd
#
# Track frame offsets: 
#        150
#        20794
#        38144
#        57859
#        74667
#        94724
#        110836
#        131078
#        150165
#        166395
#        185741
#
# Disc length: 2766 seconds
#
# Revision: 2
# Processed by: cddbd v1.5.2PL0 Copyright (c) Steve Scherf et al.
# Submitted via: ExactAudioCopyFreeDBPlugin 1.0
#
DISCID=9a0acc0b
DTITLE=Beth Hart - My California
DYEAR=2010
DGENRE=Blues/Country
TTITLE0=My California
TTITLE1=Life Is Callin
TTITLE2=Happiness... Any Day Now
TTITLE3=Love Is The Hardest
TTITLE4=Bad Love Is Good Enough
TTITLE5=Drive
TTITLE6=Sister Heroine (feat. Slash)
TTITLE7=Take It Easy On Me
TTITLE8=Like You (And Everyone Else)
TTITLE9=Everybody Is Sober
TTITLE10=Weight Of The World
EXTD=
EXTT0=
EXTT1=
EXTT2=
EXTT3=
EXTT4=
EXTT5=
EXTT6=
EXTT7=
EXTT8=
EXTT9=
EXTT10=
PLAYORDER=
